<svg width="60" height="60" viewBox="0 0 60 60" fill="none" xmlns="http://www.w3.org/2000/svg">
<path d="M10 45C8.61929 45 7.5 43.8807 7.5 42.5V42.5C7.5 41.1193 8.61929 40 10 40H50C51.3807 40 52.5 41.1193 52.5 42.5V42.5C52.5 43.8807 51.3807 45 50 45H10ZM10 32.5C8.61929 32.5 7.5 31.3807 7.5 30V30C7.5 28.6193 8.61929 27.5 10 27.5H50C51.3807 27.5 52.5 28.6193 52.5 30V30C52.5 31.3807 51.3807 32.5 50 32.5H10ZM10 20C8.61929 20 7.5 18.8807 7.5 17.5V17.5C7.5 16.1193 8.61929 15 10 15H50C51.3807 15 52.5 16.1193 52.5 17.5V17.5C52.5 18.8807 51.3807 20 50 20H10Z" fill="#0D0D0D"/>
</svg>
