<svg width="30" height="30" viewBox="0 0 30 30" fill="none" xmlns="http://www.w3.org/2000/svg">
<path d="M22.3551 14.7149C21.8744 15.4459 21.9481 16.7689 22.578 17.376C22.7355 17.5279 22.8803 17.6892 23.0123 17.8601C23.577 18.5909 23.8593 19.4711 23.8593 20.5008C23.8593 22.0288 23.2282 23.2162 21.966 24.0633C20.7038 24.8937 18.8769 25.3089 16.4854 25.3089H7.66998C7.1177 25.3089 6.66998 24.8611 6.66998 24.3089V8.87038C6.66998 8.3181 7.1177 7.87038 7.66998 7.87038H15.9871C18.3122 7.87038 20.0644 8.28559 21.2436 9.11599C22.4393 9.94639 23.0372 11.0508 23.0372 12.4293C23.0372 13.2431 22.8296 13.9739 22.4144 14.6216C22.3951 14.653 22.3753 14.6841 22.3551 14.7149ZM13.4496 11.9809C12.8973 11.9809 12.4496 12.4286 12.4496 12.9809V13.5717C12.4496 14.124 12.8973 14.5717 13.4496 14.5717H15.1899C16.4687 14.5717 17.1082 14.1399 17.1082 13.2763C17.1082 12.4127 16.4687 11.9809 15.1899 11.9809H13.4496ZM15.9871 21.1984C17.2825 21.1984 17.9303 20.7416 17.9303 19.8282C17.9303 18.9148 17.2825 18.458 15.9871 18.458H13.4496C12.8973 18.458 12.4496 18.9057 12.4496 19.458V20.1984C12.4496 20.7506 12.8973 21.1984 13.4496 21.1984H15.9871Z" fill="#0D0D0D"/>
<rect x="22.1238" y="0.869234" width="2.53522" height="29.2653" rx="1.26761" transform="rotate(22.6169 22.1238 0.869234)" fill="#EB5757" stroke="white" stroke-width="0.2"/>
<ellipse cx="11.75" cy="28.4907" rx="3.75" ry="1.5" fill="#EB5757"/>
</svg>
