<svg width="1604" height="1066" viewBox="0 0 1604 1066" fill="none" xmlns="http://www.w3.org/2000/svg">
<path d="M1079.3 492.441C1076.57 499.027 1081.41 506.276 1088.54 506.276H1177.54C1181.68 506.276 1185.4 508.83 1186.88 512.699L1202.5 553.484C1203.98 557.353 1207.7 559.908 1211.84 559.908H1296.59C1303.8 559.908 1308.64 552.519 1305.76 545.914L1187.83 275.21C1184.31 267.126 1172.81 267.226 1169.43 275.369L1132.75 363.707C1131.77 366.073 1131.73 368.726 1132.65 371.118L1150.59 417.966C1153.1 424.514 1148.27 431.543 1141.25 431.543H1111.26C1107.22 431.543 1103.58 433.976 1102.03 437.708L1079.3 492.441Z" fill="#0D0D0D"/>
<path fill-rule="evenodd" clip-rule="evenodd" d="M59.7041 252.184C54.1813 252.184 49.7041 256.661 49.7041 262.184V549.907C49.7041 555.43 54.1812 559.907 59.7041 559.907H222.314C264.663 559.907 296.79 552.434 318.695 537.487C340.892 522.541 351.99 501.733 351.99 475.063C351.99 457.186 347.171 441.947 337.533 429.345C331.509 421.033 323.885 414.311 315.346 408.934C308.024 404.323 307.228 392.25 313.653 386.454C317.748 382.76 321.327 378.74 324.39 374.394C333.152 362.085 337.533 348.164 337.533 332.631C337.533 309.186 327.457 289.99 307.304 275.043C287.152 259.803 255.901 252.184 213.552 252.184H59.7041ZM213.552 487.372H161.342C155.819 487.372 151.342 482.895 151.342 477.372V449.016C151.342 443.493 155.82 439.016 161.342 439.016H213.552C224.942 439.016 233.412 441.067 238.962 445.17C244.803 449.273 247.723 455.281 247.723 463.194C247.723 471.107 244.803 477.115 238.962 481.218C233.412 485.321 224.942 487.372 213.552 487.372ZM161.342 370.437C155.819 370.437 151.342 365.96 151.342 360.437V334.718C151.342 329.196 155.819 324.718 161.342 324.718H199.533C211.215 324.718 219.685 326.623 224.942 330.433C230.492 334.243 233.266 339.958 233.266 347.578C233.266 354.905 230.492 360.62 224.942 364.723C219.685 368.532 211.215 370.437 199.533 370.437H161.342Z" fill="#0D0D0D"/>
<path d="M490.182 441.214C484.659 441.214 480.182 445.691 480.182 451.214V471.658C480.182 477.18 484.659 481.658 490.182 481.658H623.516C629.039 481.658 633.516 486.135 633.516 491.658V549.907C633.516 555.43 629.039 559.907 623.516 559.907H388.544C383.021 559.907 378.544 555.43 378.544 549.907V262.184C378.544 256.661 383.021 252.184 388.544 252.184H617.82C623.343 252.184 627.82 256.661 627.82 262.184V320.433C627.82 325.956 623.343 330.433 617.82 330.433H490.182C484.659 330.433 480.182 334.91 480.182 340.433V356.481C480.182 362.004 484.659 366.481 490.182 366.481H599.859C605.381 366.481 609.859 370.958 609.859 376.481V431.214C609.859 436.737 605.381 441.214 599.859 441.214H490.182Z" fill="#0D0D0D"/>
<path d="M759.908 559.907C754.385 559.907 749.908 555.43 749.908 549.907V342.631C749.908 337.109 745.431 332.631 739.908 332.631H670.098C664.575 332.631 660.098 328.154 660.098 322.631V262.184C660.098 256.661 664.575 252.184 670.098 252.184H933.108C938.631 252.184 943.108 256.661 943.108 262.184V322.631C943.108 328.154 938.631 332.631 933.108 332.631H863.299C857.776 332.631 853.299 337.109 853.299 342.631V549.907C853.299 555.43 848.821 559.907 843.299 559.907H759.908Z" fill="#0D0D0D"/>
<path fill-rule="evenodd" clip-rule="evenodd" d="M59.7041 604.784C54.1813 604.784 49.7041 609.261 49.7041 614.784V902.508C49.7041 908.03 54.1812 912.508 59.7041 912.508H222.314C264.663 912.508 296.79 905.034 318.695 890.088C340.892 875.141 351.99 854.333 351.99 827.664C351.99 809.786 347.171 794.547 337.533 781.945C331.509 773.633 323.885 766.911 315.345 761.534C308.023 756.923 307.227 744.851 313.652 739.055C317.747 735.361 321.327 731.34 324.39 726.994C333.152 714.685 337.533 700.764 337.533 685.232C337.533 661.786 327.457 642.59 307.304 627.643C287.152 612.404 255.901 604.784 213.552 604.784H59.7041ZM213.552 839.973H161.342C155.819 839.973 151.342 835.495 151.342 829.973V801.616C151.342 796.093 155.82 791.616 161.342 791.616H213.552C224.942 791.616 233.412 793.668 238.962 797.771C244.803 801.874 247.723 807.881 247.723 815.794C247.723 823.707 244.803 829.715 238.962 833.818C233.412 837.921 224.942 839.973 213.552 839.973ZM161.342 723.038C155.819 723.038 151.342 718.56 151.342 713.038V687.319C151.342 681.796 155.819 677.319 161.342 677.319H199.533C211.215 677.319 219.685 679.224 224.942 683.034C230.492 686.843 233.266 692.558 233.266 700.178C233.266 707.505 230.492 713.22 224.942 717.323C219.685 721.133 211.215 723.038 199.533 723.038H161.342Z" fill="#0D0D0D"/>
<path d="M490.182 834.258C484.659 834.258 480.182 829.781 480.182 824.258V803.814C480.182 798.291 484.659 793.814 490.182 793.814H599.859C605.381 793.814 609.859 789.337 609.859 783.814V729.081C609.859 723.558 605.381 719.081 599.859 719.081H490.182C484.659 719.081 480.182 714.604 480.182 709.081V693.034C480.182 687.511 484.659 683.034 490.182 683.034H617.82C623.343 683.034 627.82 678.556 627.82 673.034V614.784C627.82 609.261 623.343 604.784 617.82 604.784H388.544C383.021 604.784 378.544 609.261 378.544 614.784V902.508C378.544 908.03 383.021 912.508 388.544 912.508H623.516C629.039 912.508 633.516 908.03 633.516 902.508V844.258C633.516 838.735 629.039 834.258 623.516 834.258H490.182Z" fill="#0D0D0D"/>
<path d="M1195.56 604.784C1190.04 604.784 1185.56 609.261 1185.56 614.784V902.507C1185.56 908.03 1190.04 912.507 1195.56 912.507H1269.75C1275.28 912.507 1279.75 908.03 1279.75 902.507V812.223C1279.75 802.149 1292.97 798.397 1298.26 806.968L1343.41 880.067C1345.23 883.017 1348.45 884.812 1351.92 884.812H1386.21C1389.74 884.812 1393.01 882.948 1394.81 879.908L1440.22 803.236C1445.39 794.507 1458.77 798.134 1458.82 808.279L1459.32 902.56C1459.35 908.062 1463.82 912.507 1469.32 912.507H1543.53C1549.07 912.507 1553.55 908.013 1553.53 902.479L1552.72 614.755C1552.7 609.244 1548.23 604.784 1542.72 604.784H1473.39C1469.86 604.784 1466.59 606.645 1464.79 609.682L1379.03 754.269C1375.18 760.752 1365.82 760.812 1361.89 754.379L1273.48 609.572C1271.66 606.598 1268.43 604.784 1264.94 604.784H1195.56Z" fill="#0D0D0D"/>
<path d="M932.912 845.041C930.178 851.626 935.018 858.876 942.148 858.876H1034.75C1038.89 858.876 1042.6 861.43 1044.08 865.299L1059.71 906.084C1061.19 909.953 1064.9 912.507 1069.04 912.507H1153.81C1161.01 912.507 1165.85 905.123 1162.98 898.519L1043.37 623.534C1039.85 615.452 1028.36 615.54 1024.97 623.676L988.239 711.795C987.252 714.164 987.213 716.822 988.131 719.219L1007.8 770.566C1010.31 777.114 1005.47 784.143 998.46 784.143H964.872C960.83 784.143 957.186 786.576 955.636 790.308L932.912 845.041Z" fill="#0D0D0D"/>
<path d="M1209.99 119.303C1220.64 93.7486 1208.55 64.4019 1182.97 53.7556C1157.39 43.1094 1128.01 55.195 1117.36 80.7497L767.47 919.798C766.027 923.258 762.764 925.606 759.034 925.978C706.617 931.209 668.042 948.931 668.042 969.987C668.042 995.159 723.165 1015.56 791.162 1015.56C859.159 1015.56 914.281 995.159 914.281 969.987C914.281 957.793 901.344 946.718 880.274 938.539C874.772 936.403 871.831 930.221 874.102 924.773L1209.99 119.303Z" fill="#EB5757"/>
</svg>
