<svg width="50" height="50" viewBox="0 0 50 50" fill="none" xmlns="http://www.w3.org/2000/svg">
<path fill-rule="evenodd" clip-rule="evenodd" d="M25.5 48C37.9264 48 48 37.9264 48 25.5C48 13.0736 37.9264 3 25.5 3C13.0736 3 3 13.0736 3 25.5C3 37.9264 13.0736 48 25.5 48ZM13.0125 17.5C13.0125 16.125 14.125 15 15.5 15H35.5C36.875 15 38 16.125 38 17.5V32.5C38 33.875 36.875 35 35.5 35H15.5C14.125 35 13 33.875 13 32.5L13.0125 17.5ZM35.0018 20.3114C35.3117 20.1177 35.5 19.778 35.5 19.4125C35.5 18.5799 34.5842 18.0724 33.8782 18.5136L27.62 22.425C26.3229 23.2357 24.6771 23.2357 23.38 22.425L17.1218 18.5136C16.4158 18.0724 15.5 18.5799 15.5 19.4125C15.5 19.778 15.6883 20.1177 15.9982 20.3114L23.38 24.925C24.6771 25.7357 26.3229 25.7357 27.62 24.925L35.0018 20.3114Z" fill="#589BD4"/>
</svg>
