<svg width="50" height="50" viewBox="0 0 50 50" fill="none" xmlns="http://www.w3.org/2000/svg">
<path d="M25.5 3C13.08 3 3 13.08 3 25.5C3 37.92 13.08 48 25.5 48C37.92 48 48 37.92 48 25.5C48 13.08 37.92 3 25.5 3ZM35.94 18.3C35.6025 21.855 34.14 30.495 33.3975 34.4775C33.0825 36.165 32.4525 36.7275 31.8675 36.795C30.5625 36.9075 29.5725 35.94 28.3125 35.1075C26.3325 33.8025 25.2075 32.9925 23.295 31.7325C21.0675 30.27 22.5075 29.46 23.79 28.155C24.1275 27.8175 29.8875 22.575 30 22.1025C30.0156 22.0309 30.0135 21.9566 29.9939 21.8861C29.9743 21.8155 29.9378 21.7508 29.8875 21.6975C29.7525 21.585 29.5725 21.63 29.415 21.6525C29.2125 21.6975 26.0625 23.79 19.92 27.93C19.02 28.5375 18.21 28.8525 17.49 28.83C16.68 28.8075 15.15 28.38 14.0025 27.9975C12.585 27.5475 11.4825 27.3 11.5725 26.5125C11.6175 26.1075 12.18 25.7025 13.2375 25.275C19.8075 22.4175 24.1725 20.5275 26.355 19.6275C32.61 17.0175 33.8925 16.5675 34.7475 16.5675C34.9275 16.5675 35.355 16.6125 35.625 16.8375C35.85 17.0175 35.9175 17.265 35.94 17.445C35.9175 17.58 35.9625 17.985 35.94 18.3Z" fill="#589BD4"/>
</svg>
